<svg width="911" height="155" viewBox="0 0 911 155" fill="none" xmlns="http://www.w3.org/2000/svg">
<path d="M88.9891 76.6993H154.427V104.39L112.031 155.003H23.4517L88.9891 76.6993Z" fill="#1C76ED"/>
<path d="M64.6028 0.00012207L130.976 0.00012207L155 0.00012207L88.9892 76.6993L0 76.6993L64.6028 0.00012207Z" fill="#1C76ED"/>
<path d="M259.529 143.765C251.372 143.765 243.789 142.271 236.78 139.284C229.887 136.297 223.913 132.161 218.857 126.876C213.917 121.476 210.298 115.214 208 108.091L227.474 99.6465C230.576 107 235.057 112.802 240.916 117.053C246.776 121.189 253.382 123.257 260.735 123.257C264.871 123.257 268.433 122.625 271.42 121.361C274.522 119.982 276.878 118.144 278.486 115.846C280.209 113.548 281.071 110.791 281.071 107.574C281.071 103.783 279.922 100.681 277.624 98.2678C275.441 95.7402 272.11 93.787 267.629 92.4083L242.985 84.4808C232.989 81.3787 225.464 76.7256 220.408 70.5214C215.353 64.3173 212.825 57.0217 212.825 48.6346C212.825 41.2815 214.606 34.7901 218.168 29.1604C221.844 23.5307 226.9 19.1648 233.334 16.0628C239.882 12.8458 247.35 11.2373 255.738 11.2373C263.435 11.2373 270.501 12.616 276.935 15.3734C283.369 18.0159 288.884 21.7499 293.479 26.5753C298.19 31.2859 301.694 36.8582 303.992 43.2921L284.69 51.909C282.163 45.475 278.371 40.5347 273.316 37.0879C268.261 33.5263 262.401 31.7455 255.738 31.7455C251.831 31.7455 248.384 32.4348 245.397 33.8135C242.41 35.0773 240.055 36.9156 238.331 39.3283C236.723 41.6262 235.919 44.3836 235.919 47.6005C235.919 51.1622 237.068 54.3217 239.365 57.0791C241.663 59.7216 245.167 61.7897 249.878 63.2833L273.488 70.6938C283.714 74.0256 291.354 78.6213 296.409 84.4808C301.579 90.3403 304.164 97.5784 304.164 106.195C304.164 113.548 302.269 120.04 298.477 125.669C294.686 131.299 289.458 135.722 282.795 138.939C276.131 142.156 268.376 143.765 259.529 143.765Z" fill="#666666"/>
<path d="M357.496 143.765C347.845 143.765 339.401 141.582 332.162 137.216C324.924 132.85 319.295 126.933 315.273 119.465C311.252 111.997 309.242 103.725 309.242 94.6487C309.242 85.2276 311.252 76.8979 315.273 69.6597C319.41 62.3067 324.982 56.5046 331.99 52.2536C339.113 48.0027 347.041 45.8772 355.773 45.8772C363.126 45.8772 369.56 47.0835 375.075 49.4963C380.704 51.909 385.472 55.2408 389.379 59.4918C393.285 63.7428 396.272 68.6257 398.34 74.1405C400.408 79.5404 401.442 85.3999 401.442 91.719C401.442 93.3274 401.327 94.9934 401.098 96.7168C400.983 98.4401 400.695 99.9337 400.236 101.198H327.854V83.9638H387.483L376.798 92.0636C377.832 86.7786 377.545 82.0681 375.936 77.932C374.443 73.7959 371.915 70.5214 368.353 68.1087C364.907 65.696 360.713 64.4896 355.773 64.4896C351.062 64.4896 346.869 65.696 343.192 68.1087C339.516 70.4065 336.701 73.8533 334.748 78.449C332.909 82.9297 332.22 88.3871 332.68 94.821C332.22 100.566 332.967 105.678 334.92 110.159C336.988 114.525 339.975 117.914 343.881 120.327C347.903 122.74 352.498 123.946 357.668 123.946C362.839 123.946 367.204 122.855 370.766 120.672C374.443 118.489 377.315 115.559 379.383 111.882L397.651 120.844C395.813 125.325 392.94 129.289 389.034 132.735C385.128 136.182 380.474 138.882 375.075 140.835C369.79 142.788 363.93 143.765 357.496 143.765Z" fill="#666666"/>
<path d="M408.216 141.697V47.9452H429.413V68.7981L427.69 65.696C429.873 58.6876 433.262 53.8047 437.858 51.0473C442.568 48.2899 448.198 46.9112 454.747 46.9112H460.262V66.9023H452.162C445.728 66.9023 440.558 68.913 436.652 72.9342C432.745 76.8405 430.792 82.3553 430.792 89.4786V141.697H408.216Z" fill="#666666"/>
<path d="M490.597 141.697L453.717 47.9452H478.361L505.074 121.706H495.94L522.824 47.9452H547.469L510.588 141.697H490.597Z" fill="#666666"/>
<path d="M574.676 143.765C568.128 143.765 562.44 142.673 557.615 140.491C552.79 138.308 549.056 135.205 546.413 131.184C543.771 127.048 542.449 122.28 542.449 116.88C542.449 111.71 543.598 107.114 545.896 103.093C548.194 98.9571 551.756 95.5104 556.581 92.753C561.406 89.9956 567.496 88.0424 574.849 86.8935L605.525 81.8957V99.1295L579.157 103.61C574.676 104.414 571.345 105.851 569.162 107.919C566.979 109.987 565.887 112.687 565.887 116.019C565.887 119.236 567.094 121.821 569.506 123.774C572.034 125.612 575.136 126.531 578.813 126.531C583.523 126.531 587.659 125.555 591.221 123.601C594.897 121.533 597.712 118.719 599.665 115.157C601.733 111.595 602.767 107.689 602.767 103.438V79.3107C602.767 75.2894 601.159 71.9576 597.942 69.3151C594.84 66.5577 590.704 65.179 585.534 65.179C580.708 65.179 576.4 66.5002 572.608 69.1427C568.932 71.6704 566.232 75.0597 564.509 79.3107L546.068 70.3491C547.907 65.4088 550.779 61.1578 554.685 57.5961C558.707 53.9196 563.417 51.0473 568.817 48.9792C574.217 46.9112 580.076 45.8772 586.395 45.8772C594.093 45.8772 600.872 47.3133 606.731 50.1856C612.591 52.943 617.129 56.8493 620.346 61.9046C623.678 66.8449 625.344 72.6469 625.344 79.3107V141.697H603.974V125.669L608.799 125.325C606.387 129.346 603.514 132.735 600.182 135.493C596.851 138.135 593.059 140.203 588.808 141.697C584.557 143.076 579.847 143.765 574.676 143.765Z" fill="#666666"/>
<path d="M635.87 141.697V11.2373H658.446V141.697H635.87Z" fill="#666666"/>
<path d="M711.69 142.731C701.12 142.731 692.905 139.859 687.046 134.114C681.301 128.255 678.429 120.04 678.429 109.47V68.1087H662.229V47.9452H663.953C668.548 47.9452 672.11 46.7388 674.638 44.3261C677.165 41.9134 678.429 38.4092 678.429 33.8135V26.5753H701.005V47.9452H722.547V68.1087H701.005V108.263C701.005 111.365 701.522 114.008 702.556 116.191C703.705 118.374 705.429 120.04 707.726 121.189C710.139 122.338 713.184 122.912 716.86 122.912C717.665 122.912 718.584 122.855 719.618 122.74C720.767 122.625 721.858 122.51 722.892 122.395V141.697C721.284 141.927 719.445 142.156 717.377 142.386C715.309 142.616 713.414 142.731 711.69 142.731Z" fill="#666666"/>
<path d="M773.422 143.765C763.771 143.765 755.327 141.582 748.088 137.216C740.85 132.85 735.221 126.933 731.199 119.465C727.178 111.997 725.168 103.725 725.168 94.6487C725.168 85.2276 727.178 76.8979 731.199 69.6597C735.335 62.3067 740.908 56.5046 747.916 52.2536C755.039 48.0027 762.967 45.8772 771.699 45.8772C779.052 45.8772 785.486 47.0835 791 49.4963C796.63 51.909 801.398 55.2408 805.305 59.4918C809.211 63.7428 812.198 68.6257 814.266 74.1405C816.334 79.5404 817.368 85.3999 817.368 91.719C817.368 93.3274 817.253 94.9934 817.023 96.7168C816.909 98.4401 816.621 99.9337 816.162 101.198H743.78V83.9638H803.409L792.724 92.0636C793.758 86.7786 793.471 82.0681 791.862 77.932C790.369 73.7959 787.841 70.5214 784.279 68.1087C780.833 65.696 776.639 64.4896 771.699 64.4896C766.988 64.4896 762.795 65.696 759.118 68.1087C755.442 70.4065 752.627 73.8533 750.674 78.449C748.835 82.9297 748.146 88.3871 748.605 94.821C748.146 100.566 748.893 105.678 750.846 110.159C752.914 114.525 755.901 117.914 759.807 120.327C763.829 122.74 768.424 123.946 773.594 123.946C778.765 123.946 783.13 122.855 786.692 120.672C790.369 118.489 793.241 115.559 795.309 111.882L813.577 120.844C811.738 125.325 808.866 129.289 804.96 132.735C801.054 136.182 796.4 138.882 791 140.835C785.715 142.788 779.856 143.765 773.422 143.765Z" fill="#666666"/>
<path d="M824.142 141.697V11.2373H846.718V96.7168L838.101 94.1317L882.22 47.9452H910.311L875.671 85.6871L911 141.697H885.149L854.473 93.0977L867.916 90.3403L839.652 120.672L846.718 106.885V141.697H824.142Z" fill="#666666"/>
</svg>
